HIERARCHY
ROOT Hips
{
  OFFSET 3.92544 6.39728 0
  CHANNELS 6 Xposition Yposition Zposition Zrotation Xrotation Yrotation
  JOINT BN_Spine_01
  {
    OFFSET 5.06197 -0.168311 0
    CHANNELS 6 Xposition Yposition Zposition Zrotation Xrotation Yrotation
    JOINT BN_Spine_02
    {
      OFFSET 14.8952 0 0
      CHANNELS 6 Xposition Yposition Zposition Zrotation Xrotation Yrotation
      JOINT BN_Spine_03
      {
        OFFSET 14.3786 0 0
        CHANNELS 6 Xposition Yposition Zposition Zrotation Xrotation Yrotation
        JOINT BN__Neck_01
        {
          OFFSET 15.3325 0 0
          CHANNELS 6 Xposition Yposition Zposition Zrotation Xrotation Yrotation
          JOINT BN__Neck_02
          {
            OFFSET 11.0839 0 0
            CHANNELS 6 Xposition Yposition Zposition Zrotation Xrotation Yrotation
            JOINT BN__Neck_R_01
            {
              OFFSET 3.85383 1.1973 3.491
              CHANNELS 6 Xposition Yposition Zposition Zrotation Xrotation Yrotation
              End Site
              {
                OFFSET 0 0 0
              }
            }
            JOINT BN__Neck_L_01
            {
              OFFSET 3.85383 1.1973 -3.49098
              CHANNELS 6 Xposition Yposition Zposition Zrotation Xrotation Yrotation
              End Site
              {
                OFFSET 0 0 0
              }
            }
            JOINT BN_Head_01
            {
              OFFSET 9.67523 0 0
              CHANNELS 6 Xposition Yposition Zposition Zrotation Xrotation Yrotation
              JOINT BN_Mouth_01
              {
                OFFSET 1.08197 -0.588672 0
                CHANNELS 6 Xposition Yposition Zposition Zrotation Xrotation Yrotation
                JOINT BN_Tongue_01
                {
                  OFFSET 2.17792 0.065941 0
                  CHANNELS 6 Xposition Yposition Zposition Zrotation Xrotation Yrotation
                  JOINT BN_Tongue_02
                  {
                    OFFSET 3.80658 -0.000201226 0
                    CHANNELS 6 Xposition Yposition Zposition Zrotation Xrotation Yrotation
                    End Site
                    {
                      OFFSET 0 0 0
                    }
                  }
                }
              }
            }
          }
        }
      }
    }
  }
  JOINT BN_Tail_01
  {
    OFFSET 4.67587 -0.164094 0
    CHANNELS 6 Xposition Yposition Zposition Zrotation Xrotation Yrotation
    JOINT BN_Tail_02
    {
      OFFSET 13.1147 2.52724e-005 0
      CHANNELS 6 Xposition Yposition Zposition Zrotation Xrotation Yrotation
      JOINT BN_Tail_03
      {
        OFFSET 13.4995 9.10759e-005 0
        CHANNELS 6 Xposition Yposition Zposition Zrotation Xrotation Yrotation
        JOINT BN_Tail_04
        {
          OFFSET 13.2851 0 0
          CHANNELS 6 Xposition Yposition Zposition Zrotation Xrotation Yrotation
          JOINT BN_Tail_05
          {
            OFFSET 14.6528 0.000106812 0
            CHANNELS 6 Xposition Yposition Zposition Zrotation Xrotation Yrotation
            JOINT BN_Tail_06
            {
              OFFSET 13.1048 0 0
              CHANNELS 6 Xposition Yposition Zposition Zrotation Xrotation Yrotation
              JOINT BN_Tail_07
              {
                OFFSET 11.869 0.000113964 0
                CHANNELS 6 Xposition Yposition Zposition Zrotation Xrotation Yrotation
                End Site
                {
                  OFFSET 0 0 0
                }
              }
            }
          }
        }
      }
    }
  }
}
MOTION
Frames:	5
Frame Time:	0.0333333
-4.74783 3.71089 3.10541 4.50634 -2.93488 -32.9938 5.06197 -0.168311 7.27507e-012 2.1823 2.13828 51.2985 14.8952 -2.38419e-007 -1.90735e-006 68.4571 -25.6965 -5.65268 14.3786 5.32907e-015 9.53674e-007 70.5145 0.351502 -26.4556 15.3325 -7.10544e-015 -8.88178e-016 -30.2796 -12.4041 23.2581 11.0839 -1.90735e-006 -5.96047e-008 -89.6655 0.452139 2.37283 4.75212 1.20063 4.66945 -87.314 -13.605 -72.5979 4.77534 1.32381 -3.91516 93.2246 -18.4209 99.6847 9.67522 -3.81471e-006 7.10543e-015 -43.0967 0.653314 0.878392 1.08197 -0.588671 2.3737e-008 -0.867304 -5.28141e-008 2.19163e-008 2.18019 0.236683 2.53516e-006 -1.38491 0.000210682 -0.0174752 2.22212 -0.0124159 1.06056e-009 12.4682 0.00228783 -1.23508 4.67587 -0.164094 7.27685e-012 177.829 3.28449 24.0125 13.1147 8.88178e-016 1.19209e-007 -5.5367 -2.20784 74.7904 13.4995 -2.38419e-007 0 -6.08593 2.08469 66.3217 13.2851 -2.38419e-007 -9.53674e-007 -3.10585 -2.3833 63.0967 14.6528 -2.85327e-013 3.8147e-006 -2.95732 -2.60923 57.5795 13.1048 -1.19209e-007 -7.62939e-006 0.434687 2.27326 42.4179 11.869 1.77636e-015 1.77636e-014 -4.42536 6.9952 10.4276 
-4.83921 3.71522 3.08215 4.4756 -2.98348 -33.6061 5.06197 -0.168311 7.27596e-012 1.92782 2.08508 51.8547 14.8952 -2.38419e-007 -1.90735e-006 69.2914 -26.3624 -5.11267 14.3786 5.32907e-015 9.53674e-007 71.1572 -0.00206878 -26.8834 15.3325 0 2.22045e-016 -30.3485 -12.3744 23.0501 11.0839 -1.90735e-006 -5.96046e-008 -90.4361 0.420855 2.4607 4.7534 1.19909 4.67455 -87.314 -13.605 -72.5979 4.77715 1.323 -3.92007 93.2246 -18.421 99.6847 9.67522 -3.81471e-006 0 -44.2304 0.628755 0.905022 1.08197 -0.588671 2.31066e-008 -0.867304 -5.43592e-008 2.28449e-008 2.18017 0.23665 2.53542e-006 -1.41299 0.000213765 -0.0173113 2.22212 -0.012406 1.04627e-009 12.468 0.00326831 -1.16075 4.67587 -0.164094 7.27685e-012 177.813 3.29353 24.1013 13.1147 -8.88178e-016 1.19209e-007 -5.5367 -2.20788 74.7904 13.4995 -2.38419e-007 0 -6.09503 2.05884 66.5317 13.2851 -2.38419e-007 -9.53674e-007 -3.08762 -2.37366 62.9269 14.6528 -3.43503e-013 3.8147e-006 -2.96297 -2.60396 57.7287 13.1048 -1.19209e-007 -7.62939e-006 0.424181 2.28248 42.5886 11.869 1.9984e-015 5.32907e-015 -4.67829 6.96846 12.3921 
-4.9288 3.71946 3.05935 4.44328 -3.02893 -34.1999 5.06197 -0.168311 7.27773e-012 1.67584 2.02908 52.3976 14.8952 -2.38419e-007 -1.90735e-006 70.0936 -27.0127 -4.58735 14.3786 -1.77636e-015 9.53674e-007 71.744 -0.359013 -27.2981 15.3325 0 -4.44089e-016 -30.3924 -12.3351 22.8427 11.0839 -1.90735e-006 -5.96046e-008 -91.1576 0.387341 2.54885 4.75453 1.19789 4.6781 -87.314 -13.605 -72.5979 4.77892 1.32221 -3.92488 93.2246 -18.421 99.6848 9.67522 -3.81471e-006 0 -45.3465 0.605512 0.927606 1.08197 -0.588671 2.24719e-008 -0.867304 -5.56019e-008 2.378e-008 2.18004 0.236599 2.53568e-006 -1.42338 -8.86065e-008 -3.1408e-008 2.22212 -0.0124287 1.0323e-009 12.454 -0.000905084 -1.10454 4.67587 -0.164094 7.27329e-012 177.796 3.30238 24.1884 13.1147 2.66454e-015 1.19209e-007 -5.5367 -2.20798 74.7903 13.4995 -2.38419e-007 -3.55271e-015 -6.1042 2.03268 66.736 13.2851 -2.38419e-007 -9.53674e-007 -3.07222 -2.36455 62.7634 14.6528 -4.08562e-013 3.8147e-006 -2.96779 -2.60023 57.8712 13.1048 -1.19209e-007 -7.62939e-006 0.415164 2.28826 42.7524 11.869 -8.88179e-016 8.88178e-015 -4.92126 6.93389 14.2937 
-5.01328 3.7239 3.03365 4.41298 -3.07506 -34.7876 5.06197 -0.168311 7.27418e-012 1.42043 1.97324 52.9432 14.8952 -2.38419e-007 -1.90735e-006 70.8958 -27.6624 -4.05846 14.3786 3.55272e-015 9.53674e-007 72.2951 -0.72138 -27.7184 15.3325 -1.77636e-014 -4.44089e-015 -30.4123 -12.2874 22.6255 11.0839 -1.90735e-006 -5.96047e-008 -91.8458 0.355846 2.63498 4.75567 1.19667 4.68168 -87.314 -13.605 -72.5979 4.7794 1.32186 -3.92879 93.2247 -18.4209 99.6849 9.67522 -3.81471e-006 3.55271e-015 -46.4782 0.578402 0.948682 1.08197 -0.588671 2.18586e-008 -0.867304 -5.64283e-008 2.46836e-008 2.17992 0.236543 2.53593e-006 -1.44611 -9.10659e-008 -1.22323e-008 2.22212 -0.0124515 1.01831e-009 12.4539 0.000104396 -1.03079 4.67587 -0.164094 7.27596e-012 177.78 3.31024 24.275 13.1147 4.44089e-016 1.19209e-007 -5.53669 -2.20779 74.7903 13.4995 -2.38419e-007 3.55271e-015 -6.11335 2.00622 66.9423 13.2851 -2.38419e-007 -9.53674e-007 -3.05664 -2.3554 62.5983 14.6528 -4.82503e-013 3.8147e-006 -2.97347 -2.595 58.0174 13.1048 -1.19209e-007 -7.62939e-006 0.406122 2.29408 42.9142 11.869 -1.77636e-015 1.42109e-014 -5.16503 6.89402 16.1859 
-5.09858 3.72839 3.0077 4.38031 -3.1194 -35.3742 5.06197 -0.168311 7.27596e-012 1.16321 1.9223 53.4883 14.8952 -2.38419e-007 -1.90735e-006 71.6877 -28.3114 -3.52885 14.3786 7.10543e-015 9.53674e-007 72.8067 -1.0941 -28.1405 15.3325 -1.77636e-014 -9.99201e-015 -30.4039 -12.228 22.403 11.0839 -1.90735e-006 -5.96046e-008 -92.4937 0.324067 2.7215 4.75682 1.19544 4.6853 -87.314 -13.605 -72.5979 4.77989 1.32151 -3.93272 93.2246 -18.421 99.6847 9.67522 -3.81471e-006 1.77636e-015 -47.6221 0.553892 0.970923 1.08197 -0.588671 2.12673e-008 -0.867304 -5.68378e-008 2.55548e-008 2.1804 0.236555 2.53617e-006 -1.46909 -9.26438e-008 -1.03934e-008 2.22212 -0.0124746 1.00496e-009 12.4538 -0.00235063 -0.95596 4.67587 -0.164094 7.27685e-012 177.764 3.31756 24.3606 13.1147 -1.77636e-015 1.19209e-007 -5.5367 -2.20779 74.7904 13.4995 -2.38419e-007 -7.10543e-015 -6.12208 1.98047 67.1489 13.2851 -2.38419e-007 -9.53674e-007 -3.04087 -2.34619 62.4316 14.6528 -5.46452e-013 3.8147e-006 -2.97921 -2.58973 58.1649 13.1048 -1.19209e-007 -7.62939e-006 0.397184 2.29992 43.0662 11.869 -4.44089e-016 1.77636e-014 -5.4049 6.84625 18.0605 
